# xmcd
#
# Track frame offsets:
#	150
#	3473
#	20129
#	40218
#	56013
#	73223
#	89794
#	107450
#	125394
#	142772
#	160914
#	179804
#	199010
#	216864
#	231388
#	247031
#	264644
#	265909
#
# Disc length: 3854 seconds
#
# Revision: 1
# Processed by: cddbd v1.5.2PL0 Copyright (c) Steve Scherf et al.
# Submitted via: audiograbber 1.83.01
#
DISCID=130f0c12
DTITLE=Slapbak - The Key
DYEAR=2006
DGENRE=Funk
TTITLE0=Intro
TTITLE1=The Key
TTITLE2=Too Much
TTITLE3=Lowrider
TTITLE4=Trip Dip
TTITLE5=Complications
TTITLE6=Work No More
TTITLE7=California Girl Dipped In Chocolate
TTITLE8=Run With Me
TTITLE9=You Get In My Mind
TTITLE10=Make Room For Love
TTITLE11=Cold Blooded Filla
TTITLE12=Fanatic
TTITLE13=Break It Out
TTITLE14=We Aint Playin' Wid It
TTITLE15=Down
TTITLE16=Interlude
TTITLE17=Thank You
EXTD=
EXTT0=
EXTT1=
EXTT2=
EXTT3=
EXTT4=
EXTT5=
EXTT6=
EXTT7=
EXTT8=
EXTT9=
EXTT10=
EXTT11=
EXTT12=
EXTT13=
EXTT14=
EXTT15=
EXTT16=
EXTT17=
PLAYORDER=
